<svg xmlns="http://www.w3.org/2000/svg" viewBox="0 0 609.97 326.22"><title>Asset 1</title><g id="Layer_2" data-name="Layer 2"><g id="Layer_1-2" data-name="Layer 1"><path d="M600.69,479.07c-7.63-.14-13.62-3.61-18.92-8.87Q524.64,413.53,467.42,357L305.47,196.56c-12.48-12.35-12.57-28.26-.2-38.23a23.81,23.81,0,0,1,30-.29c5.66,4.62,10.82,9.87,16.1,15q122.46,117.82,244.9,235.68c4.7,4.53,4.72,4.53,9.5-.08Q733.64,285.53,861.43,162.43c7-6.73,14.7-11.05,24.65-9,9.39,1.92,15.82,7.57,18.74,16.78,3.09,9.78,0,18-7,25q-19.1,19.08-38.32,38Q740.18,351.41,620.86,469.6C615.19,475.22,608.94,479.16,600.69,479.07Z" transform="translate(-296.05 -152.85)"/></g></g></svg>