<svg viewBox="0 0 609.97 326.22" xmlns="http://www.w3.org/2000/svg"><path d="m600.69 479.07c-7.63-.14-13.62-3.61-18.92-8.87q-57.13-56.67-114.35-113.2l-161.95-160.44c-12.48-12.35-12.57-28.26-.2-38.23a23.81 23.81 0 0 1 30-.29c5.66 4.62 10.82 9.87 16.1 15q122.46 117.82 244.9 235.68c4.7 4.53 4.72 4.53 9.5-.08q127.87-123.11 255.66-246.21c7-6.73 14.7-11.05 24.65-9 9.39 1.92 15.82 7.57 18.74 16.78 3.09 9.78 0 18-7 25q-19.1 19.08-38.32 38-119.32 118.2-238.64 236.39c-5.67 5.62-11.92 9.56-20.17 9.47z" transform="translate(-296.05 -152.85)"/></svg>